<?xml version="1.0" ?><!DOCTYPE svg  PUBLIC '-//W3C//DTD SVG 1.1//EN'  'http://www.w3.org/Graphics/SVG/1.1/DTD/svg11.dtd'><svg enable-background="new 0 0 65 65" height="65px" version="1.1" viewBox="0 0 65 65" width="65px" xml:space="preserve" xmlns="http://www.w3.org/2000/svg" xmlns:xlink="http://www.w3.org/1999/xlink"><g id="Layer_2"><path d="M25,64H7c-0.552,0-1-0.447-1-1V44c0-0.553,0.448-1,1-1h18c0.552,0,1,0.447,1,1v19   C26,63.553,25.552,64,25,64z M8,62h16V45H8V62z" fill="#FFBE06"/><path d="M21,45h-9c-0.552,0-1-0.447-1-1v-5c0-0.553,0.448-1,1-1h9c0.552,0,1,0.447,1,1v5C22,44.553,21.552,45,21,45   z M13,43h7v-3h-7V43z" fill="#FFBE06"/><path d="M60,64H47c-0.552,0-1-0.447-1-1V30c0-0.553,0.448-1,1-1h13c0.552,0,1,0.447,1,1v33   C61,63.553,60.552,64,60,64z M48,62h11V31H48V62z" fill="#00A651"/><g><path d="M47,64H25c-0.552,0-1-0.447-1-1V22c0-0.553,0.448-1,1-1h22c0.552,0,1,0.447,1,1v41    C48,63.553,47.552,64,47,64z M26,62h20V23H26V62z" fill="#92278F"/></g><g><path d="M43,23H29c-0.552,0-1-0.447-1-1v-6c0-0.553,0.448-1,1-1h14c0.552,0,1,0.447,1,1v6    C44,22.553,43.552,23,43,23z M30,21h12v-4H30V21z" fill="#92278F"/></g><g><path d="M41,17H31c-0.552,0-1-0.447-1-1v-6c0-0.553,0.448-1,1-1h10c0.552,0,1,0.447,1,1v6    C42,16.553,41.552,17,41,17z M32,15h8v-4h-8V15z" fill="#92278F"/></g><g><rect fill="#FFFFFF" height="6" width="0" x="36" y="4"/><path d="M36,11c-0.552,0-1-0.447-1-1V4c0-0.553,0.448-1,1-1s1,0.447,1,1v6C37,10.553,36.552,11,36,11z" fill="#92278F"/></g><path d="M34.5,36h-4c-0.276,0-0.5-0.224-0.5-0.5v-8c0-0.276,0.224-0.5,0.5-0.5h4c0.276,0,0.5,0.224,0.5,0.5v8   C35,35.776,34.776,36,34.5,36z M31,35h3v-7h-3V35z" fill="#92278F"/><path d="M56.5,39h-6c-0.276,0-0.5-0.224-0.5-0.5v-3c0-0.276,0.224-0.5,0.5-0.5h6c0.276,0,0.5,0.224,0.5,0.5v3   C57,38.776,56.776,39,56.5,39z M51,38h5v-2h-5V38z" fill="#00A651"/><path d="M56.5,45h-6c-0.276,0-0.5-0.224-0.5-0.5v-3c0-0.276,0.224-0.5,0.5-0.5h6c0.276,0,0.5,0.224,0.5,0.5v3   C57,44.776,56.776,45,56.5,45z M51,44h5v-2h-5V44z" fill="#00A651"/><path d="M56.5,51h-6c-0.276,0-0.5-0.224-0.5-0.5v-3c0-0.276,0.224-0.5,0.5-0.5h6c0.276,0,0.5,0.224,0.5,0.5v3   C57,50.776,56.776,51,56.5,51z M51,50h5v-2h-5V50z" fill="#00A651"/><path d="M56.5,57h-6c-0.276,0-0.5-0.224-0.5-0.5v-3c0-0.276,0.224-0.5,0.5-0.5h6c0.276,0,0.5,0.224,0.5,0.5v3   C57,56.776,56.776,57,56.5,57z M51,56h5v-2h-5V56z" fill="#00A651"/><path d="M41.5,36h-4c-0.276,0-0.5-0.224-0.5-0.5v-8c0-0.276,0.224-0.5,0.5-0.5h4c0.276,0,0.5,0.224,0.5,0.5v8   C42,35.776,41.776,36,41.5,36z M38,35h3v-7h-3V35z" fill="#92278F"/><path d="M14.5,63h-2c-0.276,0-0.5-0.224-0.5-0.5v-15c0-0.276,0.224-0.5,0.5-0.5h2c0.276,0,0.5,0.224,0.5,0.5v15   C15,62.776,14.776,63,14.5,63z M13,62h1V48h-1V62z" fill="#FFBE06"/><path d="M19.5,63h-2c-0.276,0-0.5-0.224-0.5-0.5v-15c0-0.276,0.224-0.5,0.5-0.5h2c0.276,0,0.5,0.224,0.5,0.5v15   C20,62.776,19.776,63,19.5,63z M18,62h1V48h-1V62z" fill="#FFBE06"/><path d="M34.5,47h-4c-0.276,0-0.5-0.224-0.5-0.5v-8c0-0.276,0.224-0.5,0.5-0.5h4c0.276,0,0.5,0.224,0.5,0.5v8   C35,46.776,34.776,47,34.5,47z M31,46h3v-7h-3V46z" fill="#92278F"/><path d="M41.5,47h-4c-0.276,0-0.5-0.224-0.5-0.5v-8c0-0.276,0.224-0.5,0.5-0.5h4c0.276,0,0.5,0.224,0.5,0.5v8   C42,46.776,41.776,47,41.5,47z M38,46h3v-7h-3V46z" fill="#92278F"/><path d="M34.5,58h-4c-0.276,0-0.5-0.224-0.5-0.5v-8c0-0.276,0.224-0.5,0.5-0.5h4c0.276,0,0.5,0.224,0.5,0.5v8   C35,57.776,34.776,58,34.5,58z M31,57h3v-7h-3V57z" fill="#92278F"/><path d="M41.5,58h-4c-0.276,0-0.5-0.224-0.5-0.5v-8c0-0.276,0.224-0.5,0.5-0.5h4c0.276,0,0.5,0.224,0.5,0.5v8   C42,57.776,41.776,58,41.5,58z M38,57h3v-7h-3V57z" fill="#92278F"/></g><g id="Layer_3"/></svg>